<svg width="20" height="20" viewBox="0 0 20 20" fill="none" xmlns="http://www.w3.org/2000/svg">
<mask id="mask0_965_41241" style="mask-type:alpha" maskUnits="userSpaceOnUse" x="0" y="0" width="20" height="20">
<rect width="20" height="20" fill="#D9D9D9"/>
</mask>
<g mask="url(#mask0_965_41241)">
<path d="M10.0003 18.3334C8.84755 18.3334 7.76421 18.1145 6.75033 17.6767C5.73644 17.2395 4.85449 16.6459 4.10449 15.8959C3.35449 15.1459 2.76088 14.264 2.32366 13.2501C1.88588 12.2362 1.66699 11.1529 1.66699 10.0001C1.66699 8.8473 1.88588 7.76397 2.32366 6.75008C2.76088 5.73619 3.35449 4.85425 4.10449 4.10425C4.85449 3.35425 5.73644 2.76036 6.75033 2.32258C7.76421 1.88536 8.84755 1.66675 10.0003 1.66675C11.1531 1.66675 12.2364 1.88536 13.2503 2.32258C14.2642 2.76036 15.1462 3.35425 15.8962 4.10425C16.6462 4.85425 17.2398 5.73619 17.677 6.75008C18.1148 7.76397 18.3337 8.8473 18.3337 10.0001C18.3337 11.1529 18.1148 12.2362 17.677 13.2501C17.2398 14.264 16.6462 15.1459 15.8962 15.8959C15.1462 16.6459 14.2642 17.2395 13.2503 17.6767C12.2364 18.1145 11.1531 18.3334 10.0003 18.3334ZM14.167 7.91675L15.292 7.54175L15.6253 6.41675C15.1809 5.75008 14.6462 5.17703 14.0212 4.69758C13.3962 4.21869 12.7087 3.86119 11.9587 3.62508L10.8337 4.41675V5.58341L14.167 7.91675ZM5.83366 7.91675L9.16699 5.58341V4.41675L8.04199 3.62508C7.29199 3.86119 6.60449 4.21869 5.97949 4.69758C5.35449 5.17703 4.81977 5.75008 4.37533 6.41675L4.70866 7.54175L5.83366 7.91675ZM4.95866 14.3334L5.91699 14.2501L6.54199 13.1251L5.33366 9.50008L4.16699 9.08341L3.33366 9.70841C3.33366 10.6112 3.45866 11.434 3.70866 12.1767C3.95866 12.9201 4.37533 13.639 4.95866 14.3334ZM10.0003 16.6667C10.3614 16.6667 10.7156 16.639 11.0628 16.5834C11.41 16.5279 11.7503 16.4445 12.0837 16.3334L12.667 15.0834L12.1253 14.1667H7.87533L7.33366 15.0834L7.91699 16.3334C8.25033 16.4445 8.5906 16.5279 8.93783 16.5834C9.28505 16.639 9.63921 16.6667 10.0003 16.6667ZM8.12533 12.5001H11.8753L13.042 9.16675L10.0003 7.04175L7.00033 9.16675L8.12533 12.5001ZM15.042 14.3334C15.6253 13.639 16.042 12.9201 16.292 12.1767C16.542 11.434 16.667 10.6112 16.667 9.70841L15.8337 9.12508L14.667 9.50008L13.4587 13.1251L14.0837 14.2501L15.042 14.3334Z" fill="white"/>
</g>
</svg>
