<svg xmlns="http://www.w3.org/2000/svg" width="32" height="32" viewBox="0 0 1000 1000" fill="none"><path fill="#C8C8C8" d="M801.366 251H199.524c-32.599 0-59.02 26.421-59.02 59.02v237.935c0 32.6 26.421 59.021 59.02 59.021h601.842c32.599 0 59.02-26.421 59.02-59.021V310.02c0-32.599-26.421-59.02-59.02-59.02zM265.964 428.995c0-7.536 6.105-13.641 13.641-13.641s13.641 6.105 13.641 13.641-6.105 13.627-13.641 13.627-13.641-6.105-13.641-13.627zm108.167 0c0-69.726 56.508-126.234 126.234-126.234 69.725 0 126.219 56.508 126.219 126.234s-56.508 126.219-126.219 126.219c-69.712 0-126.234-56.508-126.234-126.219zm354.778 13.627c-7.537 0-13.642-6.105-13.642-13.627s6.105-13.641 13.642-13.641c7.536 0 13.641 6.105 13.641 13.641s-6.105 13.627-13.641 13.627zM227.521 674.451h545.83c28.919 0 52.346-23.442 52.346-52.346H175.176c0 28.919 23.441 52.346 52.345 52.346zM202.112 696.566c0 28.919 23.442 52.346 52.346 52.346h491.98c28.919 0 52.346-23.442 52.346-52.346H202.098h.014z"/><path fill="#C8C8C8" d="M538.673 430.909c-4.733-5.477-11.013-9.595-18.155-11.64a35.631 35.631 0 00-5.857-1.198h-4.659v-27.647h28.671v-24.202h-28.671v-26.523h-24.201v26.523c-11.465 0-21.732 5.083-28.67 13.145a37.688 37.688 0 00-9.201 24.742 37.715 37.715 0 009.201 24.741c4.732 5.477 11.012 9.596 18.169 11.641h.015a37.08 37.08 0 0010.486 1.489v27.926h-28.67v24.215h28.67v26.524h24.201v-27.093c11.465 0 21.733-5.083 28.671-13.13a37.667 37.667 0 009.216-24.756 37.668 37.668 0 00-9.216-24.757zm-52.872-14.707c-6.674 0-12.093-5.419-12.093-12.093 0-6.675 5.419-12.108 12.093-12.108v24.201zm24.201 51.571v-24.215c6.69 0 12.108 5.418 12.108 12.108 0 6.689-5.418 12.107-12.108 12.107z"/><path fill="#FFFFFF" d="M801.366 251H199.524c-32.599 0-59.02 26.421-59.02 59.02v237.935c0 32.6 26.421 59.021 59.02 59.021h601.842c32.599 0 59.02-26.421 59.02-59.021V310.02c0-32.599-26.421-59.02-59.02-59.02zm29.751 248.539c0 5.667-4.177 10.37-9.786 11.29-25.545 4.148-45.729 24.332-49.892 49.891-.905 5.609-5.608 9.801-11.275 9.801H240.726c-5.667 0-10.37-4.192-11.276-9.801-4.162-25.559-24.347-45.743-49.891-49.891-5.594-.92-9.786-5.623-9.786-11.29V358.437c0-5.667 4.192-10.37 9.786-11.29 25.544-4.148 45.729-24.333 49.891-49.892.906-5.608 5.609-9.786 11.276-9.786h519.438c5.667 0 10.37 4.178 11.275 9.786 4.163 25.559 24.347 45.744 49.892 49.892 5.609.92 9.786 5.623 9.786 11.29v141.102z"/><path fill="#FFFFFF" d="M500.367 302.762c-69.726 0-126.234 56.508-126.234 126.234 0 69.725 56.508 126.219 126.234 126.219 69.725 0 126.219-56.508 126.219-126.219 0-69.712-56.508-126.234-126.219-126.234zm38.309 177.659c-6.937 8.047-17.205 13.13-28.67 13.13v27.093h-24.201v-26.523h-28.67v-24.216h28.67V441.98c-3.651 0-7.156-.512-10.487-1.49h-.014c-7.157-2.045-13.437-6.164-18.169-11.641a37.713 37.713 0 01-9.201-24.741c0-9.45 3.461-18.111 9.201-24.741 6.937-8.062 17.205-13.145 28.67-13.145v-26.523h24.201v26.523h28.67v24.201h-28.67v27.648h4.659c2.001.233 3.958.642 5.857 1.197 7.142 2.045 13.422 6.164 18.154 11.641a37.66 37.66 0 019.216 24.756c0 9.464-3.461 18.11-9.216 24.756z"/><path fill="#FFFFFF" d="M522.108 455.666c0 6.69-5.419 12.108-12.108 12.108v-24.215c6.689 0 12.108 5.418 12.108 12.107zM485.804 392v24.201c-6.674 0-12.093-5.419-12.093-12.093 0-6.675 5.419-12.108 12.093-12.108zM742.552 428.997c0 7.522-6.105 13.627-13.641 13.627s-13.641-6.105-13.641-13.627 6.105-13.642 13.641-13.642 13.641 6.106 13.641 13.642zM293.244 428.997c0 7.522-6.105 13.627-13.642 13.627-7.536 0-13.641-6.105-13.641-13.627s6.105-13.642 13.641-13.642c7.537 0 13.642 6.106 13.642 13.642z"/></svg>