<svg width="12" height="12" viewBox="0 0 12 12" fill="none" xmlns="http://www.w3.org/2000/svg">
<path d="M11 4.08096V4.11746C11 4.54746 11 4.76296 10.8965 4.93896C10.793 5.11496 10.6045 5.21946 10.2285 5.42896L9.832 5.64896C10.105 4.72496 10.1965 3.73196 10.23 2.88296L10.235 2.77246L10.236 2.74646C10.5615 2.85946 10.7445 2.94396 10.8585 3.10196C11 3.29846 11 3.55946 11 4.08096ZM1 4.08096V4.11746C1 4.54746 1 4.76296 1.1035 4.93896C1.207 5.11496 1.3955 5.21946 1.7715 5.42896L2.1685 5.64896C1.895 4.72496 1.8035 3.73196 1.77 2.88296L1.765 2.77246L1.7645 2.74646C1.4385 2.85946 1.2555 2.94396 1.1415 3.10196C1 3.29846 1 3.55996 1 4.08096Z" fill="url(#paint0_linear_695_33779)"/>
<path fill-rule="evenodd" clip-rule="evenodd" d="M5.99999 0.999991C6.89199 0.999991 7.62649 1.07849 8.18849 1.17349C8.75799 1.26949 9.04249 1.31749 9.28049 1.61049C9.51849 1.90349 9.50549 2.21999 9.48049 2.85299C9.39449 5.02749 8.92549 7.74299 6.37499 7.98299V9.74999H7.08999C7.20553 9.75006 7.31749 9.79015 7.40682 9.86344C7.49615 9.93672 7.55734 10.0387 7.57999 10.152L7.67499 10.625H8.99999C9.09944 10.625 9.19483 10.6645 9.26515 10.7348C9.33548 10.8052 9.37499 10.9005 9.37499 11C9.37499 11.0994 9.33548 11.1948 9.26515 11.2652C9.19483 11.3355 9.09944 11.375 8.99999 11.375H2.99999C2.90053 11.375 2.80515 11.3355 2.73482 11.2652C2.6645 11.1948 2.62499 11.0994 2.62499 11C2.62499 10.9005 2.6645 10.8052 2.73482 10.7348C2.80515 10.6645 2.90053 10.625 2.99999 10.625H4.32499L4.41999 10.152C4.44263 10.0387 4.50382 9.93672 4.59315 9.86344C4.68248 9.79015 4.79444 9.75006 4.90999 9.74999H5.62499V7.98299C3.07499 7.74299 2.60599 5.02699 2.51999 2.85299C2.49449 2.21999 2.48199 1.90299 2.71999 1.61049C2.95749 1.31749 3.24199 1.26949 3.81149 1.17349C4.5349 1.05499 5.26693 0.996955 5.99999 0.999991ZM6.47599 3.09949L6.42699 3.01149C6.23699 2.66999 6.14199 2.49999 5.99999 2.49999C5.85799 2.49999 5.76299 2.66999 5.57299 3.01149L5.52399 3.09949C5.46999 3.19649 5.44299 3.24449 5.40099 3.27649C5.35849 3.30849 5.30599 3.32049 5.20099 3.34399L5.10599 3.36599C4.73699 3.44949 4.55249 3.49099 4.50849 3.63199C4.46449 3.77299 4.59049 3.92049 4.84199 4.21449L4.90699 4.29049C4.97849 4.37399 5.01449 4.41549 5.03049 4.46749C5.04649 4.51949 5.04099 4.57499 5.03049 4.68649L5.02049 4.78799C4.98249 5.18049 4.96349 5.37699 5.07799 5.46399C5.19299 5.55099 5.36599 5.47149 5.71149 5.31249L5.80049 5.27149C5.89899 5.22649 5.94799 5.20399 5.99999 5.20399C6.05199 5.20399 6.10099 5.22649 6.19949 5.27149L6.28849 5.31249C6.63399 5.47199 6.80699 5.55099 6.92199 5.46399C7.03699 5.37699 7.01749 5.18049 6.97949 4.78799L6.96949 4.68649C6.95899 4.57499 6.95349 4.51949 6.96949 4.46749C6.98549 4.41549 7.02149 4.37399 7.09299 4.29049L7.15799 4.21449C7.40949 3.92049 7.53549 3.77349 7.49149 3.63199C7.44749 3.49099 7.26299 3.44949 6.89399 3.36599L6.79899 3.34399C6.69399 3.32049 6.64149 3.30899 6.59899 3.27649C6.55699 3.24449 6.52999 3.19649 6.47599 3.09949Z" fill="url(#paint1_linear_695_33779)"/>
<defs>
<linearGradient id="paint0_linear_695_33779" x1="6" y1="2.74646" x2="6" y2="5.64896" gradientUnits="userSpaceOnUse">
<stop stop-color="white"/>
<stop offset="0.105769" stop-color="#FFC500"/>
<stop offset="0.9" stop-color="#FA9300"/>
<stop offset="1" stop-color="#975300"/>
</linearGradient>
<linearGradient id="paint1_linear_695_33779" x1="6.00013" y1="0.999878" x2="6.00013" y2="11.375" gradientUnits="userSpaceOnUse">
<stop stop-color="white"/>
<stop offset="0.105769" stop-color="#FFC500"/>
<stop offset="0.9" stop-color="#FA9300"/>
<stop offset="1" stop-color="#975300"/>
</linearGradient>
</defs>
</svg>
